<svg width="75" height="17" viewBox="0 0 75 17" fill="none" xmlns="http://www.w3.org/2000/svg">
<g filter="url(#filter0_d_545_1867)">
<path d="M1.37305 13.6725V0.126465H11.8194C15.6034 0.126465 17.8779 2.6827 17.8779 6.90955C17.8779 11.1364 15.6034 13.6725 11.8194 13.6725H1.37305ZM11.3363 2.21976H3.68775V11.5792H11.3363C13.9731 11.5792 15.6236 9.78783 15.6236 6.90955C15.6236 4.03127 13.9731 2.21976 11.3363 2.21976Z" fill="#F4F4F4"/>
<path d="M20.0856 13.6725V0.126465H35.7854V2.21976H22.4003V4.29293H35.5841V6.38622H22.4003V11.5792H35.7854V13.6725H20.0856Z" fill="#F4F4F4"/>
<path d="M37.9923 13.8738V0.126465H51.4981C53.37 0.126465 54.4972 1.29388 54.4972 3.24628C54.4972 5.19868 53.37 6.38622 51.4981 6.38622H40.307V13.8738H37.9923ZM50.8943 2.21976H40.307V4.29293H50.8943C51.7799 4.29293 52.2429 3.97088 52.2429 3.24628C52.2429 2.52168 51.7598 2.21976 50.8943 2.21976Z" fill="#F4F4F4"/>
<path d="M56.2307 8.12745V6.60183H57.507V3.56525H59.194V6.60183H62.2452V8.12745H59.194V10.7533C59.194 11.4574 59.502 11.9122 60.4115 11.9122H62.3919V13.4378H60.2502C58.2111 13.4378 57.507 12.3963 57.507 10.812V8.12745H56.2307Z" fill="#F4F4F4"/>
<path d="M67.1966 8.12745C66.2871 8.12745 65.6857 8.5822 65.6857 9.28634V13.4378H63.9987V3.56525H65.6857V7.12993C66.0377 6.8072 66.5218 6.60183 67.0939 6.60183H70.9373C72.9764 6.60183 73.6805 7.64336 73.6805 9.22766V13.4378H71.9935V9.28634C71.9935 8.5822 71.6855 8.12745 70.776 8.12745H67.1966Z" fill="#F4F4F4"/>
</g>
<defs>
<filter id="filter0_d_545_1867" x="0.171697" y="0.126465" width="74.7103" height="16.15" filterUnits="userSpaceOnUse" color-interpolation-filters="sRGB">
<feFlood flood-opacity="0" result="BackgroundImageFix"/>
<feColorMatrix in="SourceAlpha" type="matrix" values="0 0 0 0 0 0 0 0 0 0 0 0 0 0 0 0 0 0 127 0" result="hardAlpha"/>
<feOffset dy="1.20135"/>
<feGaussianBlur stdDeviation="0.600675"/>
<feComposite in2="hardAlpha" operator="out"/>
<feColorMatrix type="matrix" values="0 0 0 0 0 0 0 0 0 0 0 0 0 0 0 0 0 0 0.25 0"/>
<feBlend mode="normal" in2="BackgroundImageFix" result="effect1_dropShadow_545_1867"/>
<feBlend mode="normal" in="SourceGraphic" in2="effect1_dropShadow_545_1867" result="shape"/>
</filter>
</defs>
</svg>
